<svg width="24" height="24" viewBox="0 0 24 24" fill="none" xmlns="http://www.w3.org/2000/svg">
<path d="M20.9999 2V8M20.9999 8H14.9999M20.9999 8L18.3597 5.63067C16.9787 4.25209 15.187 3.35964 13.2547 3.08779C11.3223 2.81593 9.35392 3.17941 7.64611 4.12343C5.9383 5.06746 4.58357 6.54091 3.78605 8.32177C2.98853 10.1026 2.79141 12.0944 3.22441 13.997C3.65741 15.8996 4.69706 17.61 6.18671 18.8704C7.67637 20.1308 9.53533 20.873 11.4835 20.9851C13.4317 21.0972 15.3635 20.5732 16.9879 19.492C18.6124 18.4108 19.8414 16.831 20.4899 14.9907" stroke="#001A72" stroke-width="1.5" stroke-linecap="round" stroke-linejoin="round"/>
</svg>
