<svg width="24" height="24" viewBox="0 0 24 24" fill="none" xmlns="http://www.w3.org/2000/svg">
<path d="M3 2V8M3 8H9M3 8L5.64033 5.63067C7.02134 4.25209 8.81301 3.35964 10.7454 3.08779C12.6777 2.81593 14.6461 3.17941 16.3539 4.12343C18.0617 5.06746 19.4165 6.54091 20.214 8.32177C21.0115 10.1026 21.2086 12.0944 20.7756 13.997C20.3426 15.8996 19.303 17.61 17.8133 18.8704C16.3237 20.1308 14.4647 20.873 12.5165 20.9851C10.5684 21.0972 8.63652 20.5732 7.01208 19.492C5.38765 18.4108 4.15862 16.831 3.51018 14.9907" stroke="#001A72" stroke-width="1.5" stroke-linecap="round" stroke-linejoin="round"/>
</svg>
