<svg width="36" height="24" viewBox="0 0 36 24" fill="none" xmlns="http://www.w3.org/2000/svg">
<path d="M18 17.25C17.5858 17.25 17.25 17.5858 17.25 18C17.25 18.4142 17.5858 18.75 18 18.75V17.25ZM18.015 18.75C18.4292 18.75 18.765 18.4142 18.765 18C18.765 17.5858 18.4292 17.25 18.015 17.25V18.75ZM18 18.75H18.015V17.25H18V18.75ZM12 3.75H24V2.25H12V3.75ZM26.25 5V19H27.75V5H26.25ZM24 20.25H12V21.75H24V20.25ZM9.75 19V5H8.25V19H9.75ZM12 20.25C11.299 20.25 10.6983 20.0592 10.2947 19.7902C9.8859 19.5176 9.75 19.2235 9.75 19H8.25C8.25 19.8811 8.78567 20.5869 9.46265 21.0383C10.1449 21.4931 11.0442 21.75 12 21.75V20.25ZM26.25 19C26.25 19.2235 26.1141 19.5176 25.7053 19.7902C25.3017 20.0592 24.701 20.25 24 20.25V21.75C24.9558 21.75 25.8551 21.4931 26.5373 21.0383C27.2143 20.5869 27.75 19.8811 27.75 19H26.25ZM24 3.75C24.701 3.75 25.3017 3.94078 25.7053 4.20982C26.1141 4.48236 26.25 4.7765 26.25 5H27.75C27.75 4.11893 27.2143 3.41307 26.5373 2.96175C25.8551 2.50693 24.9558 2.25 24 2.25V3.75ZM12 2.25C11.0442 2.25 10.1449 2.50693 9.46265 2.96175C8.78567 3.41307 8.25 4.11893 8.25 5H9.75C9.75 4.7765 9.8859 4.48236 10.2947 4.20982C10.6983 3.94078 11.299 3.75 12 3.75V2.25Z" fill="#001A72"/>
</svg>
