<svg width="22" height="24" viewBox="0 0 22 24" fill="none" xmlns="http://www.w3.org/2000/svg">
<path d="M11 17.25C10.5858 17.25 10.25 17.5858 10.25 18C10.25 18.4142 10.5858 18.75 11 18.75V17.25ZM11.0092 18.75C11.4234 18.75 11.7592 18.4142 11.7592 18C11.7592 17.5858 11.4234 17.25 11.0092 17.25V18.75ZM11 18.75H11.0092V17.25H11V18.75ZM7.33333 3.75H14.6667V2.25H7.33333V3.75ZM15.75 5V19H17.25V5H15.75ZM14.6667 20.25H7.33333V21.75H14.6667V20.25ZM6.25 19V5H4.75V19H6.25ZM7.33333 20.25C6.79512 20.25 6.25 19.7531 6.25 19H4.75C4.75 20.456 5.8465 21.75 7.33333 21.75V20.25ZM15.75 19C15.75 19.7531 15.2049 20.25 14.6667 20.25V21.75C16.1535 21.75 17.25 20.456 17.25 19H15.75ZM14.6667 3.75C15.2049 3.75 15.75 4.24688 15.75 5H17.25C17.25 3.54398 16.1535 2.25 14.6667 2.25V3.75ZM7.33333 2.25C5.8465 2.25 4.75 3.54398 4.75 5H6.25C6.25 4.24688 6.79512 3.75 7.33333 3.75V2.25Z" fill="#fff"/>
</svg>
